<?xml version="1.0" encoding="utf-8"?>
<!-- Generator: Adobe Illustrator 28.0.0, SVG Export Plug-In . SVG Version: 6.00 Build 0)  -->
<svg version="1.1" id="Layer_1" xmlns="http://www.w3.org/2000/svg" xmlns:xlink="http://www.w3.org/1999/xlink" x="0px" y="0px"
	 viewBox="0 0 211.65 112.93" style="enable-background:new 0 0 211.65 112.93;" xml:space="preserve">
<style type="text/css">
	.st0{opacity:0.8;fill:url(#SVGID_1_);}
	.st1{opacity:0.8;fill:url(#SVGID_00000162326974940847947930000012019892239813571227_);}
	.st2{opacity:0.8;fill:url(#SVGID_00000012450830918324111260000015133315248790387602_);}
	.st3{opacity:0.8;fill:url(#SVGID_00000069368582727094639860000012363186980840744632_);}
	.st4{opacity:0.8;fill:url(#SVGID_00000153698948753600047800000006552073229701903248_);}
	.st5{opacity:0.8;fill:url(#SVGID_00000057116632489820901070000000025113797287091391_);}
</style>
<linearGradient id="SVGID_1_" gradientUnits="userSpaceOnUse" x1="135.8967" y1="55.1523" x2="206.4362" y2="55.1523">
	<stop  offset="0" style="stop-color:#43826A"/>
	<stop  offset="0.5008" style="stop-color:#3A6891"/>
	<stop  offset="1" style="stop-color:#3E55A5"/>
</linearGradient>
<path class="st0" d="M199.67,94.4L199.67,94.4c-7.33,5.32-17.59,3.7-22.92-3.63l-37.72-51.94c-5.32-7.33-3.7-17.59,3.63-22.92l0,0
	c7.33-5.32,17.59-3.7,22.92,3.63l37.72,51.94C208.63,78.81,207,89.07,199.67,94.4z"/>
<linearGradient id="SVGID_00000134247639851920063380000012441492479165022099_" gradientUnits="userSpaceOnUse" x1="5.2125" y1="55.5217" x2="75.7521" y2="55.5217">
	<stop  offset="0" style="stop-color:#43826A"/>
	<stop  offset="0.5008" style="stop-color:#3A6891"/>
	<stop  offset="1" style="stop-color:#3E55A5"/>
</linearGradient>
<path style="opacity:0.8;fill:url(#SVGID_00000134247639851920063380000012441492479165022099_);" d="M11.98,94.77L11.98,94.77
	c7.33,5.32,17.59,3.7,22.92-3.63l37.72-51.94c5.32-7.33,3.7-17.59-3.63-22.92l0,0c-7.33-5.32-17.59-3.7-22.92,3.63L8.35,71.85
	C3.02,79.18,4.65,89.44,11.98,94.77z"/>
<linearGradient id="SVGID_00000153706084459878432420000007558271247097995156_" gradientUnits="userSpaceOnUse" x1="90.4706" y1="51.6904" x2="165.2325" y2="51.6904">
	<stop  offset="0" style="stop-color:#43826A"/>
	<stop  offset="0.5008" style="stop-color:#3A6891"/>
	<stop  offset="1" style="stop-color:#3E55A5"/>
</linearGradient>
<path style="opacity:0.8;fill:url(#SVGID_00000153706084459878432420000007558271247097995156_);" d="M162.13,31.74l-38.48,52.94
	l-4.53,6.25c-5.2,7.16-15.14,8.83-22.37,3.82c-0.01,0-0.04-0.01-0.04-0.01c-1-0.86-1.9-1.82-2.7-2.93l-2.06-2.82
	c0,0,0-0.01-0.01-0.01l-0.26-0.36l-1.09-1.49c-0.05-0.12-0.08-0.21-0.13-0.33l1.11,1.53l0.13,0.18l1.08,1.48
	c5.33,7.32,15.58,8.95,22.91,3.62c7.32-5.31,8.97-15.58,3.64-22.9l-11.83-16.26l-1.21-1.68l0.09-0.13l29.18-40.18
	c5.27-7.27,15.44-8.88,22.7-3.6l0.25,0.19C165.79,14.32,167.4,24.48,162.13,31.74z"/>
<linearGradient id="SVGID_00000145031616975239756220000015670336470082896771_" gradientUnits="userSpaceOnUse" x1="46.8967" y1="51.019" x2="122.5179" y2="51.019">
	<stop  offset="0" style="stop-color:#43826A"/>
	<stop  offset="0.5008" style="stop-color:#3A6891"/>
	<stop  offset="1" style="stop-color:#3E55A5"/>
</linearGradient>
<path style="opacity:0.8;fill:url(#SVGID_00000145031616975239756220000015670336470082896771_);" d="M53.66,8.27L53.66,8.27
	c-7.33,5.32-8.96,15.58-3.63,22.92l42.81,58.94c5.32,7.33,15.58,8.96,22.92,3.63l0,0c7.33-5.32,8.96-15.58,3.63-22.92L76.58,11.91
	C71.25,4.58,60.99,2.95,53.66,8.27z"/>
<linearGradient id="SVGID_00000178163801229485969060000006772186879285313706_" gradientUnits="userSpaceOnUse" x1="90.6941" y1="75.9736" x2="123.8745" y2="75.9736">
	<stop  offset="0" style="stop-color:#43826A"/>
	<stop  offset="0.5008" style="stop-color:#3A6891"/>
	<stop  offset="1" style="stop-color:#3E55A5"/>
</linearGradient>
<path style="opacity:0.8;fill:url(#SVGID_00000178163801229485969060000006772186879285313706_);" d="M123.75,84.06
	c-0.05,0.4-0.21,0.79-0.45,1.12l-4.16,5.75c-5.2,7.16-15.14,8.83-22.37,3.82c-0.01,0-0.04-0.01-0.04-0.01c-1-0.86-1.9-1.82-2.7-2.93
	l-2.06-2.82c0,0,0-0.01-0.01-0.01c-0.08-0.15-0.16-0.32-0.25-0.48c-0.07-0.12-0.13-0.25-0.2-0.38c-1.56-4.82-0.91-10.33,2.3-14.77
	l13.71-18.92l0.11-0.13l13.12,18.08C123.29,75.91,124.25,80.08,123.75,84.06z"/>
<linearGradient id="SVGID_00000121269686986538968280000016949623221096854943_" gradientUnits="userSpaceOnUse" x1="69.7708" y1="62.5482" x2="107.6185" y2="62.5482">
	<stop  offset="0" style="stop-color:#43826A"/>
	<stop  offset="0.5008" style="stop-color:#3A6891"/>
	<stop  offset="1" style="stop-color:#3E55A5"/>
</linearGradient>
<path style="opacity:0.8;fill:url(#SVGID_00000121269686986538968280000016949623221096854943_);" d="M107.62,54.32l-0.1,0.13
	L93.81,73.35c-3.25,4.49-3.88,10.1-2.23,14.97c0.04,0.1,0.07,0.2,0.11,0.3l-1.09-1.5l-17.68-24.4c-2.13-2.92-3.15-6.33-3.15-9.69
	c0-5.13,2.36-10.15,6.82-13.4c7.37-5.37,17.68-3.71,23.05,3.67l6.76,9.33L107.62,54.32z"/>
</svg>
